# xmcd
#
# Track frame offsets:
#  150
#  18282
#  34913
#  50586
#  72748
#  89581
#  106851
#  121603
#  142560
#  158041
#  173818
#  191564
#  208360
#  228356
#  243984
#  257997
#  275087
#  293354
#  309725
#  318770
#  331671
#
# Disc length: 4537 seconds
#
# Revision: 0
# Processed by: cddbd v1.5.1PL0 Copyright (c) Steve Scherf et al.
# Submitted via: Collectorz.com Music Collector 6.9
#
DISCID=2711b715
DTITLE=Various Artist - Honky Tonk 16
DYEAR=1900
DGENRE=
TTITLE0=Duane Jarvis - Can't Build a Better Love
TTITLE1=Duane Jarvis - Come Back Again
TTITLE2=Duane Jarvis - Mandolin Moon
TTITLE3=Duane Jarvis - Prodigal Daughter
TTITLE4=Duane Jarvis - Spread My Soul Too Thin
TTITLE5=Emmylou Harris - Here I Am
TTITLE6=Emmylou Harris - Little Bird
TTITLE7=Emmylou Harris - Time in Babylon
TTITLE8=J.L. Stiles - He Didn't Even Know It
TTITLE9=J.L. Stiles - Impure World
TTITLE10=J.L. Stiles - Th Mainstream
TTITLE11=J.L. Stiles - Jbs II
TTITLE12=James Intveld - Love Calls
TTITLE13=James Intveld - Somewhere Down the Road
TTITLE14=James Intveld - Stop the World
TTITLE15=Joe Fournier - My Country Includes
TTITLE16=Joe Fournier - Susan Love Jake
TTITLE17=Joe Fournier - My Baby Drives Fast
TTITLE18=Joe Fournier - Qhen I Quit My Drinkin'
TTITLE19=Joe Fournier - Country Music's Gone To Hell
TTITLE20=Joe Fournier - Johnny Cash Plan
EXTD=
EXTT0=
EXTT1=
EXTT2=
EXTT3=
EXTT4=
EXTT5=
EXTT6=
EXTT7=
EXTT8=
EXTT9=
EXTT10=
EXTT11=
EXTT12=
EXTT13=
EXTT14=
EXTT15=
EXTT16=
EXTT17=
EXTT18=
EXTT19=
EXTT20=
PLAYORDER=
